<svg version="1.0" fill="#44f" xmlns="http://www.w3.org/2000/svg" width="294.667" height="357.333" viewBox="0 0 221 268"><path d="M192.6 13c-2.7 26.4-13.4 49-30.9 65.7-7.3 6.9-14.1 11.9-10.8 8 1.6-2 .1-2.3-1.8-.5-.7.7-.1-.5 1.4-2.7 6-8.9 10.5-23.4 10.5-33.9 0-6.9-1.5-6.3-2.9 1.2-3.6 19.3-17.1 37-35.7 46.5-7.7 3.9-21.5 3.8-29.6-.4C80.4 90.6 72 74.4 73.3 59.6c.5-5 .3-5.7-.6-4.1-.7 1.2-1.2 6.1-1.2 12 0 8.7.3 10.7 2.6 15.5 1.4 3.1 4.1 7.4 6 9.5 1.9 2.2 2.7 3.4 1.8 2.8-.9-.7-1.8-1-2.1-.7-.8.7-7.6-3.6-12.3-7.7-8.6-7.6-16.8-22.9-19.9-37.1l-1.4-6.3-.1 7.2c-.2 12.2 3.1 22.9 10 32.9 1.8 2.6 2.6 4.4 1.9 3.9-.7-.4-1.5-.2-1.9.4-.5.8-2.9-.5-7.3-3.8C31.5 71 19.7 49.8 14.7 23c-.9-4.7-1.8-9.4-2.1-10.5-.2-1.1-.4 3.8-.5 11-.1 11 .3 14.5 2.4 22.5 6 22.4 19 40.2 39.3 53.7 11.4 7.6 20.2 16.1 20.2 19.4 0 1.7-2.5 5.7-7.4 11.7-7.8 9.6-12.3 16.6-17.4 26.7-11.4 22.9-12.2 48.1-2.2 69 3.1 6.4 14.8 23 15.7 22.2.2-.3-.9-3.1-2.5-6.3-6.5-13-8.9-26.4-6.8-37.6C57 186 66 173.3 83.3 162.7c10.9-6.6 16.9-8 34.7-7.9 17.1.1 22.3-.9 22.8-4.4.2-1.2 1.6-3.4 3.3-4.9 4.4-4.3 3.8-6.7-2.8-12-5-4-9.6-7-26.7-17.5l-2.9-1.8 5.9-1.1c30.9-6 54.8-23.8 67.9-50.4 2.5-5.1 5.4-12.8 6.6-17.2 2.3-9.3 3.5-26.6 2.2-34.5l-.9-5.5-.8 7.5zm-71.8 113c1.7 1.1 3.2 2.1 3.2 2.2 0 .2-1.2.4-2.8.5-3.4.3-11.4-2.6-10.6-3.8.9-1.6 6.8-1 10.2 1.1z"/><path d="M47 144.7c-15.9 16.2-24 29.4-26.1 42.4-.6 3.5-1.4 7.9-1.9 9.6-.4 1.8-.4 3.3 0 3.3s.8 3.3.7 7.2c-.1 6 .4 8.3 2.5 12.8 1.5 3 3.6 6.6 4.8 8 2.1 2.4 2.1 2.4 1 .2-1.9-3.9-.5-3.5 2.4.7 6.4 9.2 21.6 22 35.1 29.5l5 2.8-3.5-2.8c-6.9-5.4-21.6-21.1-24.8-26.6-1.8-3.1-4.5-8.9-6-13-2.3-6.5-2.6-8.8-2.6-20.8 0-11.3.3-14.7 2.3-21 3.4-11 8.9-22.2 16.4-33.3 3.6-5.3 6.3-9.7 5.9-9.7-.4 0-5.4 4.8-11.2 10.7zm-26.3 65.5c-.3.8-.6.5-.6-.6-.1-1.1.2-1.7.5-1.3.3.3.4 1.2.1 1.9zm4.7 10.5c.9 1.8 1.4 3.3 1.2 3.3-.6 0-3.6-5.5-3.6-6.6 0-1.1.5-.3 2.4 3.3z"/><path d="M65.7 192.2c-2.1 4.5-3.7 10.7-3.7 14.2 0 8.1 5.5 16.6 14.1 21.5 2.7 1.5 4.6 3 4.3 3.3-.3.3.1.5.8.5 2.8-.3 11.8 2.5 11.1 3.6-.3.6-.1.7.5.3.6-.3 5.3-.1 10.4.6 6.6.9 8.6 1.4 6.8 1.9-1.4.4 4 .6 12 .4 9.7-.2 12.5-.1 8.5.4l-6 .8h6c3.3 0 8.9-.3 12.5-.7 6.1-.6 6.2-.7 2-1-4.7-.2 13.6-2.9 35.6-5 10.4-1.1 22.9-.4 30.4 1.5 5.2 1.4-3.3-3.5-9.5-5.4-10.4-3.2-23-4.4-40.2-3.7-8.7.3-22.8.8-31.3 1.2-32 1.2-51.3-5-59.7-19.4-2.2-3.7-2.7-5.8-2.7-11.4-.1-3.7-.2-6.8-.2-6.8-.1 0-.9 1.5-1.7 3.2z"/><path d="M87.8 234.7c.7.3 1.6.2 1.9-.1.4-.3-.2-.6-1.3-.5-1.1 0-1.4.3-.6.6zM99.8 237.7c.6.2 1.8.2 2.5 0 .6-.3.1-.5-1.3-.5-1.4 0-1.9.2-1.2.5zM152.3 237.7c1.5.2 3.7.2 5 0 1.2-.2 0-.4-2.8-.4-2.7 0-3.8.2-2.2.4z"/></svg>